# xmcd
#
# Track frame offsets:
#	150
#	14898
#	28651
#	43114
#	60170
#	75684
#	92101
#	103977
#	118319
#	129015
#
# Disc length: 1931 seconds
# Revision: 0
# Processed by: cddbd v1.5.2PL0 Copyright (c) Steve Scherf et al.
# Submitted via: dBpowerAMP V12.0
#
DISCID=8207890a
DTITLE=Steve Miller Band - Bingo!
DYEAR=2010
DGENRE=Blues
TTITLE0=Hey Yeah
TTITLE1=Who's Been Talkin'?
TTITLE2=Don't Cha Know
TTITLE3=Rock Me Baby
TTITLE4=Tramp
TTITLE5=Sweet Soul Vibe
TTITLE6=Come On (Let the Good Times Roll)
TTITLE7=All Your Love (I Miss Loving)
TTITLE8=You Got Me Dizzy
TTITLE9=Ooh Poo Pah Doo
EXTD=
EXTT0=
EXTT1=
EXTT2=
EXTT3=
EXTT4=
EXTT5=
EXTT6=
EXTT7=
EXTT8=
EXTT9=
PLAYORDER=
